<?xml version="1.0" standalone="no"?>
<!DOCTYPE svg PUBLIC "-//W3C//DTD SVG 20010904//EN"
 "http://www.w3.org/TR/2001/REC-SVG-20010904/DTD/svg10.dtd">
<svg version="1.0" xmlns="http://www.w3.org/2000/svg"
 width="300.000000pt" height="230.000000pt" viewBox="0 0 300.000000 230.000000"
 preserveAspectRatio="xMidYMid meet">
<metadata>
Created by potrace 1.10, written by Peter Selinger 2001-2011
</metadata>
<g transform="translate(0.000000,230.000000) scale(0.100000,-0.100000)"
fill="#000000" stroke="none">
<path d="M2652 2134 c-70 -35 -134 -109 -182 -211 -37 -76 -57 -135 -122 -358
-30 -103 -94 -219 -157 -286 l-57 -59 -67 0 c-85 0 -291 -33 -422 -67 -173
-45 -239 -80 -525 -284 -52 -37 -165 -101 -250 -143 -186 -90 -316 -124 -525
-136 -71 -4 -138 -10 -147 -15 -37 -15 -15 -24 65 -24 45 0 98 -5 117 -11 52
-15 123 -12 277 10 76 12 199 27 273 36 74 8 160 21 191 29 60 16 215 20 236
7 9 -6 -1 -36 -36 -112 -27 -58 -52 -119 -55 -135 -6 -29 -5 -31 78 -68 75
-33 93 -37 163 -37 l78 1 -47 42 -48 42 40 120 c22 66 40 133 40 149 l0 28
153 -3 c83 -2 171 0 194 4 l43 9 -15 -36 c-18 -42 -20 -127 -4 -176 6 -19 14
-73 17 -120 l7 -85 68 -3 c80 -3 96 13 50 52 -27 23 -28 29 -31 123 l-3 98 30
-32 c31 -33 51 -87 51 -138 0 -36 8 -48 37 -64 26 -13 80 -15 87 -2 3 5 -3 29
-14 52 -11 24 -20 55 -20 69 0 14 -16 58 -35 99 -59 123 -47 195 77 456 140
296 175 396 243 714 60 281 113 351 267 351 44 0 47 2 53 32 6 25 4 35 -10 43
-10 5 -33 22 -50 38 -40 33 -48 33 -113 1z m-1262 -1759 c0 -17 -4 -23 -15
-19 -11 5 -12 10 -2 25 15 25 17 24 17 -6z"/>
</g>
</svg>
