<?xml version="1.0" standalone="no"?>
<!DOCTYPE svg PUBLIC "-//W3C//DTD SVG 20010904//EN"
 "http://www.w3.org/TR/2001/REC-SVG-20010904/DTD/svg10.dtd">
<svg version="1.0" xmlns="http://www.w3.org/2000/svg"
 width="1350.000000pt" height="843.000000pt" viewBox="0 0 1350.000000 843.000000"
 preserveAspectRatio="xMidYMid meet">
<metadata>
Created by potrace 1.10, written by Peter Selinger 2001-2011
</metadata>
<g transform="translate(0.000000,843.000000) scale(0.100000,-0.100000)"
fill="#ff0000" stroke="none">
<path d="M10597 8383 c-16 -2 -50 -17 -75 -32 -26 -15 -54 -30 -62 -34 -8 -4
-28 -16 -45 -27 -16 -11 -34 -22 -40 -24 -5 -2 -17 -7 -25 -10 -8 -3 -28 -15
-45 -26 -16 -11 -36 -22 -42 -25 -7 -3 -19 -7 -25 -10 -7 -3 -26 -14 -43 -25
-16 -10 -52 -31 -80 -45 -27 -14 -63 -35 -80 -45 -16 -11 -39 -24 -50 -30 -11
-6 -33 -19 -50 -30 -16 -11 -36 -22 -42 -25 -7 -3 -19 -7 -25 -10 -7 -3 -26
-14 -43 -24 -16 -11 -50 -30 -75 -42 -25 -13 -64 -36 -86 -51 -23 -15 -49 -28
-57 -28 -9 0 -19 -5 -22 -11 -4 -5 -17 -14 -28 -20 -12 -5 -29 -13 -37 -19 -8
-5 -62 -37 -120 -70 -58 -33 -112 -64 -120 -70 -8 -5 -37 -21 -65 -35 -27 -14
-57 -29 -65 -34 -8 -5 -22 -12 -30 -15 -8 -4 -28 -15 -45 -26 -16 -11 -39 -24
-50 -30 -11 -6 -42 -24 -70 -40 -27 -17 -64 -37 -82 -45 -17 -8 -34 -19 -38
-25 -3 -5 -12 -10 -20 -10 -8 0 -33 -12 -57 -27 -71 -46 -81 -52 -135 -78 -29
-15 -55 -30 -58 -36 -4 -5 -14 -9 -25 -9 -10 0 -20 -7 -24 -15 -3 -8 -12 -15
-20 -15 -8 0 -32 -12 -53 -26 -21 -14 -47 -30 -58 -35 -11 -5 -33 -18 -50 -29
-16 -11 -37 -22 -45 -26 -8 -3 -22 -9 -30 -14 -8 -5 -34 -19 -58 -31 -23 -11
-48 -26 -55 -33 -7 -6 -46 -29 -87 -50 -41 -21 -88 -46 -105 -57 -56 -34 -80
-48 -132 -74 -29 -15 -53 -31 -53 -36 0 -5 -8 -9 -19 -9 -10 0 -24 -7 -31 -15
-7 -8 -21 -15 -31 -15 -10 0 -21 -5 -24 -11 -4 -5 -17 -15 -28 -20 -12 -5 -35
-18 -52 -29 -16 -11 -39 -24 -50 -30 -11 -5 -27 -14 -35 -18 -49 -28 -58 -30
-69 -19 -15 15 -14 73 3 122 8 22 19 69 25 105 6 36 16 85 21 110 5 25 14 74
21 110 6 36 17 87 25 114 8 26 14 62 14 80 1 17 7 42 15 56 8 14 15 50 15 80
0 30 7 66 15 80 8 14 14 47 15 73 0 26 7 64 15 84 8 19 15 50 15 68 0 18 7 52
15 75 8 23 15 59 15 79 0 20 7 54 15 76 20 55 19 184 -1 237 -21 53 -103 133
-147 143 -43 10 -135 10 -172 0 -16 -4 -48 -22 -70 -38 -22 -17 -749 -740
-1616 -1606 -868 -867 -1588 -1586 -1600 -1598 -70 -64 -872 -879 -919 -934
-62 -71 -173 -216 -183 -239 -4 -8 -16 -28 -27 -45 -11 -16 -24 -39 -30 -50
-6 -11 -19 -33 -30 -50 -11 -16 -22 -37 -26 -45 -3 -8 -10 -22 -15 -30 -5 -8
-12 -22 -15 -30 -7 -16 -86 -185 -110 -233 -8 -16 -14 -39 -14 -51 0 -12 -5
-27 -11 -33 -6 -6 -15 -29 -19 -50 -5 -21 -13 -51 -18 -68 -24 -70 -48 -179
-63 -285 -6 -41 -17 -95 -25 -120 -20 -65 -19 -537 1 -595 8 -22 15 -60 15
-85 1 -46 6 -73 35 -190 41 -166 63 -242 75 -254 5 -5 10 -21 10 -34 0 -13 6
-36 14 -50 14 -27 58 -121 76 -164 5 -13 14 -30 19 -38 5 -8 19 -35 31 -60 12
-25 30 -58 41 -75 10 -16 23 -39 29 -50 20 -39 139 -213 160 -235 8 -9 41 -49
74 -89 52 -65 185 -202 262 -272 38 -34 265 -203 284 -212 8 -4 29 -16 45 -27
17 -11 37 -23 45 -27 8 -3 19 -12 23 -20 4 -7 16 -13 26 -13 10 0 24 -7 31
-15 7 -8 20 -15 30 -15 10 0 23 -7 30 -15 7 -8 18 -15 24 -15 10 0 89 -36 168
-76 14 -8 34 -14 45 -14 10 0 27 -7 37 -15 11 -8 31 -15 45 -15 14 0 35 -7 45
-15 11 -8 33 -15 48 -15 16 0 36 -4 46 -10 26 -14 140 -42 202 -49 30 -4 61
-10 69 -15 8 -5 88 -12 178 -16 99 -5 169 -12 176 -19 14 -14 72 -14 97 -1 10
5 92 14 182 20 89 5 181 14 203 19 22 5 76 17 120 27 44 9 97 23 118 30 20 8
47 14 60 14 12 0 31 7 41 15 11 8 31 15 45 15 14 0 35 7 45 15 11 8 28 15 39
15 10 0 31 6 45 13 15 8 43 21 62 30 67 29 185 89 215 108 17 10 39 23 50 29
11 6 34 19 50 30 17 11 37 23 45 27 8 3 40 25 70 48 30 23 63 44 73 48 9 3 17
11 17 17 0 5 7 10 15 10 8 0 15 3 15 8 0 4 31 32 68 62 37 30 789 776 1671
1657 882 882 1608 1603 1613 1603 4 0 8 4 8 8 0 5 53 62 118 128 65 65 132
138 150 160 31 41 32 45 32 142 0 76 -3 102 -15 112 -8 7 -15 18 -15 24 0 7
-14 23 -31 36 -17 14 -38 33 -47 43 -9 9 -25 17 -35 17 -10 0 -32 7 -49 16
-33 17 -98 15 -188 -5 -25 -6 -86 -10 -136 -11 -55 0 -109 -6 -134 -15 -24 -8
-77 -15 -121 -15 -43 0 -111 -6 -151 -14 -40 -8 -122 -20 -183 -26 -439 -42
-389 -42 -393 -2 -2 19 3 41 11 50 8 10 17 24 21 32 3 8 15 29 26 45 11 17 23
37 27 45 3 8 18 31 33 50 15 19 30 42 33 50 4 8 12 24 19 35 21 38 28 50 35
65 3 8 12 19 20 23 7 4 13 13 13 18 0 6 24 48 53 95 28 47 63 104 76 127 13
23 43 71 66 107 23 36 45 72 48 80 4 8 16 29 27 45 11 17 24 39 30 50 6 11 19
34 30 50 11 17 23 37 27 45 3 8 18 31 32 50 15 19 37 55 49 80 27 54 43 80 60
98 6 7 12 17 12 22 0 5 18 36 40 69 22 33 45 72 50 86 5 14 14 25 20 25 5 0
10 8 10 19 0 10 7 24 15 31 8 7 15 19 15 26 0 8 5 14 10 14 6 0 15 10 21 23
15 33 35 67 48 80 6 6 11 19 11 28 0 9 7 19 15 23 8 3 15 15 15 26 0 11 5 20
10 20 6 0 14 10 19 23 5 12 20 38 33 57 13 19 27 42 31 50 4 8 16 29 27 45 11
17 24 40 29 52 5 11 15 24 20 28 6 3 11 15 11 26 0 10 5 19 10 19 6 0 15 10
20 23 6 12 19 36 30 52 11 17 24 39 30 50 14 28 33 57 48 73 6 7 12 20 12 28
0 8 7 17 15 20 8 4 15 10 15 16 0 5 24 48 53 95 28 47 65 108 81 137 15 28 32
53 37 54 5 2 9 7 9 12 0 8 47 88 92 158 10 15 22 36 28 47 6 11 19 34 30 50
11 17 24 39 29 50 5 11 20 36 33 55 13 19 27 42 31 50 4 8 16 29 27 45 11 17
24 39 30 50 6 11 19 34 30 50 11 17 24 39 29 50 5 11 24 43 43 70 19 28 45 70
59 95 13 25 33 59 45 75 12 17 34 56 48 87 15 32 31 60 37 63 5 4 9 40 9 82 0
67 -3 80 -30 120 -16 24 -30 47 -30 51 0 4 -22 22 -49 40 -42 29 -58 34 -122
37 -41 2 -87 1 -102 -2z m-5302 -4182 c55 -7 108 -16 117 -22 10 -5 26 -9 35
-9 18 0 37 -6 173 -51 103 -35 127 -44 141 -56 8 -6 36 -21 64 -33 180 -82
440 -298 576 -480 26 -36 52 -69 56 -75 19 -23 101 -164 108 -185 4 -13 19
-44 32 -69 14 -25 29 -57 33 -71 5 -14 18 -50 30 -80 12 -30 26 -73 30 -95 5
-22 13 -58 18 -80 34 -133 37 -168 37 -380 -1 -217 -11 -317 -40 -395 -8 -19
-17 -53 -20 -75 -4 -22 -10 -44 -14 -50 -4 -5 -15 -37 -26 -70 -10 -33 -25
-67 -32 -76 -7 -8 -13 -19 -13 -23 0 -14 -42 -99 -79 -159 -21 -34 -40 -67
-42 -73 -2 -6 -16 -26 -31 -45 -15 -19 -54 -68 -86 -109 -58 -74 -235 -250
-251 -250 -5 0 -24 -13 -42 -30 -19 -16 -37 -30 -41 -30 -4 0 -13 -6 -20 -13
-37 -37 -277 -160 -373 -192 -27 -9 -58 -21 -67 -26 -9 -5 -36 -12 -60 -15
-24 -4 -48 -11 -54 -15 -6 -5 -37 -11 -69 -14 -32 -3 -67 -11 -79 -17 -29 -16
-364 -23 -441 -9 -33 6 -91 16 -130 22 -38 6 -74 14 -80 18 -5 5 -31 11 -57
14 -26 4 -56 11 -65 16 -10 5 -38 17 -63 26 -25 9 -79 33 -120 52 -41 20 -86
41 -100 47 -14 6 -44 23 -66 39 -23 15 -45 27 -49 27 -8 0 -82 56 -108 82 -10
10 -22 18 -28 18 -5 0 -67 58 -137 128 -116 118 -200 223 -262 327 -14 22 -30
46 -37 53 -7 7 -13 18 -13 24 0 6 -14 41 -31 77 -63 135 -75 168 -103 282 -14
54 -27 103 -30 108 -3 5 -9 58 -12 118 -3 59 -9 126 -14 148 -10 43 5 291 21
365 6 25 14 64 19 87 10 44 36 134 50 168 4 11 15 38 23 60 8 22 18 47 21 55
3 8 10 22 16 30 11 18 50 106 50 115 0 6 10 20 38 50 6 7 12 17 12 22 0 5 7
18 15 28 8 11 42 58 77 105 87 120 195 229 323 325 119 89 158 113 280 174
163 80 203 95 330 125 28 6 55 14 60 18 6 3 62 11 125 18 63 6 117 13 120 16
8 8 241 -2 355 -15z"/>
</g>
</svg>
